<svg width="50" height="50" viewBox="0 0 50 50" fill="none" xmlns="http://www.w3.org/2000/svg">
<g clip-path="url(#clip0_308_125)">
<path fill-rule="evenodd" clip-rule="evenodd" d="M24.9999 49.997C11.2145 49.997 0 38.7817 0 24.9986C0 11.2182 11.2145 0.00292969 24.9999 0.00292969C38.7854 0.00292969 50 11.2182 50 24.9986C50 38.7817 38.7854 49.997 24.9999 49.997ZM44.9798 28.2423C44.2882 28.0267 38.7163 26.3621 32.3757 27.3764C35.0224 34.6481 36.1 40.5748 36.3067 41.8032C40.8461 38.7339 44.079 33.8727 44.9798 28.2423ZM32.9057 43.6572C32.6029 41.8822 31.4281 35.6937 28.5869 28.3132C28.5441 28.3281 28.4997 28.3412 28.4535 28.3577C17.0415 32.3316 12.9442 40.2505 12.5795 40.9947C16.0092 43.6687 20.3223 45.265 24.9999 45.265C27.8024 45.2649 30.4755 44.6902 32.9057 43.6572ZM9.96651 38.5595C10.4241 37.7741 15.9787 28.5798 26.4144 25.2062C26.6786 25.1206 26.9445 25.0415 27.2112 24.9674C26.7041 23.8157 26.1518 22.668 25.5707 21.532C15.4659 24.5567 5.66006 24.4315 4.77325 24.4118C4.76744 24.6176 4.76427 24.8242 4.76427 25.03C4.76427 30.228 6.73427 34.9726 9.96651 38.5595ZM5.19146 20.8866C6.09718 20.898 14.4335 20.9326 23.8994 18.4217C20.5471 12.4604 16.9304 7.44919 16.3961 6.71988C10.7353 9.38876 6.50293 14.6075 5.19146 20.8866ZM20.2581 5.36066C20.8178 6.10899 24.4928 11.1128 27.8089 17.2057C35.0058 14.5055 38.0502 10.4147 38.4134 9.89761C34.8404 6.72484 30.1411 4.79921 24.9998 4.79921C23.3667 4.79921 21.7794 4.99348 20.2581 5.36066ZM40.6633 12.2349C40.2377 12.8129 36.8451 17.1596 29.364 20.2115C29.835 21.178 30.286 22.1593 30.7075 23.144C30.855 23.4947 31.0006 23.8422 31.1422 24.1879C37.8757 23.3415 44.5656 24.6975 45.2349 24.8407C45.1896 20.0649 43.483 15.6794 40.6633 12.2349Z" fill="#FFF"/>
</g>
<defs>
<clipPath id="clip0_308_125">
<rect width="50" height="50" fill="white"/>
</clipPath>
</defs>
</svg>
